<svg id="visual" viewBox="0 0 900 600" width="900" height="600" xmlns="http://www.w3.org/2000/svg" xmlns:xlink="http://www.w3.org/1999/xlink" version="1.1"><g><g transform="translate(608 250)"><path d="M78.1 -49.3C92.6 -20 89.8 15.1 73.9 43C58 70.9 29 91.5 -3.9 93.8C-36.9 96.1 -73.8 80 -89.3 52.3C-104.8 24.7 -98.9 -14.5 -80.5 -46.1C-62 -77.7 -31 -101.8 0.4 -102C31.8 -102.2 63.6 -78.6 78.1 -49.3Z" fill="#000000"></path></g><g transform="translate(134 165)"><path d="M77.4 -42.6C94 -15.9 96.8 20.8 81.6 47.2C66.4 73.5 33.2 89.5 2.6 88C-27.9 86.5 -55.8 67.4 -72.5 40.2C-89.3 12.9 -94.8 -22.5 -80.9 -47.7C-66.9 -72.9 -33.4 -87.8 -1.5 -86.9C30.4 -86.1 60.8 -69.3 77.4 -42.6Z" fill="#000000"></path></g><g transform="translate(327 466)"><path d="M53.5 -30.1C64.8 -11.3 66.3 13.9 55.8 31.6C45.2 49.2 22.6 59.2 2 58C-18.7 56.9 -37.3 44.6 -48.7 26.5C-60 8.5 -64 -15.4 -54.7 -33.1C-45.4 -50.7 -22.7 -62.1 -0.8 -61.6C21.1 -61.1 42.2 -48.8 53.5 -30.1Z" fill="#000000"></path></g></g></svg>